<svg xmlns="http://www.w3.org/2000/svg" viewBox="0 0 276.68 45.9"><defs><style>.cls-1{fill:#231f20;}.cls-2{fill:#00e013;}</style></defs><g id="Layer_2" data-name="Layer 2"><g id="Layer_1-2" data-name="Layer 1"><path d="M15.82,45.9A20,20,0,0,1,7.37,44,19.22,19.22,0,0,1,0,37.61l6.65-5.23A13.21,13.21,0,0,0,11,36.46,10.83,10.83,0,0,0,16.5,38a7.35,7.35,0,0,0,4.62-1.36,4.44,4.44,0,0,0,1.76-3.73A3.54,3.54,0,0,0,21.49,30a44.33,44.33,0,0,0-3.77-2.61l-4.21-2.58a16.1,16.1,0,0,1-4.82-4.45,11.33,11.33,0,0,1-1.76-6.62A11.84,11.84,0,0,1,8.15,8.38,14.34,14.34,0,0,1,11.44,4a15.32,15.32,0,0,1,4.92-2.95A16.9,16.9,0,0,1,22.47,0a15.6,15.6,0,0,1,7.4,1.83,20.19,20.19,0,0,1,6.05,4.89L30,12.22a18.56,18.56,0,0,0-3.6-3,8.06,8.06,0,0,0-4.34-1.19,5.8,5.8,0,0,0-4.18,1.39,4.49,4.49,0,0,0-1.46,3.36,3.34,3.34,0,0,0,1.49,2.79c1,.72,2.36,1.63,4.08,2.71L26.34,21a13.7,13.7,0,0,1,4.72,4.31,11.65,11.65,0,0,1,1.46,6.21,13.56,13.56,0,0,1-1.19,5.67A13.41,13.41,0,0,1,28,41.72a16.09,16.09,0,0,1-5.26,3.06A20.28,20.28,0,0,1,15.82,45.9Z"/><path d="M43.19,45.9,50.65,8.17h-12L40.16,0H74L72.33,8.17h-12L52.83,45.9Z"/><path d="M60.19,45.9,84.4,0H96l4.57,45.9H90.45l-.56-11.55H76.24L70.82,45.9ZM82.5,21.05,79.68,27.1h9.86l-.28-6.05q-.15-3.37-.28-6.69c-.1-2.2-.19-4.53-.29-7h-.28q-1.47,3.6-2.88,6.9T82.5,21.05Z"/><path d="M210.65,45.9a17.84,17.84,0,0,1-6.86-1.26A14.18,14.18,0,0,1,198.57,41a16.76,16.76,0,0,1-3.37-5.9A24.58,24.58,0,0,1,194,27.16a31.25,31.25,0,0,1,1.83-10.83,28,28,0,0,1,4.92-8.62A22.61,22.61,0,0,1,207.93,2a18.89,18.89,0,0,1,8.56-2,17.51,17.51,0,0,1,6.86,1.29A14.58,14.58,0,0,1,228.57,5a16.72,16.72,0,0,1,3.36,5.87,24,24,0,0,1,1.19,7.88,31.25,31.25,0,0,1-1.83,10.83,28.13,28.13,0,0,1-4.92,8.62,22.68,22.68,0,0,1-7.17,5.67A18.82,18.82,0,0,1,210.65,45.9Zm.48-8a8.28,8.28,0,0,0,4.61-1.46,14.66,14.66,0,0,0,4-4,21.18,21.18,0,0,0,2.82-5.87,24.12,24.12,0,0,0,1.05-7.23q0-5.3-1.94-8.28a6.27,6.27,0,0,0-5.6-3,8.41,8.41,0,0,0-4.62,1.46,15.08,15.08,0,0,0-4,3.94,21,21,0,0,0-2.85,5.84,23.2,23.2,0,0,0-1.09,7.23q0,5.29,2,8.31A6.32,6.32,0,0,0,211.13,37.88Z"/><path d="M233.32,45.9,242.54,0h9.36l7.46,23.93L261.83,34h.28c.14-1.17.26-2.46.35-3.87s.21-2.83.35-4.26.31-2.87.49-4.33.43-2.84.71-4.15L267.53,0h9.15l-9.15,45.9h-9.29L250.7,22l-2.32-10.2h-.28q-.36,3.87-.81,8.16t-1.23,8.31l-3.52,17.6Z"/><polygon class="cls-1" points="119.74 24 115.4 33.42 100.02 0.01 108.69 0.01 119.74 24"/><polygon class="cls-2" points="189.39 0 168.27 45.9 176.94 45.9 198.07 0 189.39 0"/><polygon class="cls-2" points="166.69 7.57 149.05 45.9 140.37 45.9 158.01 7.57 166.69 7.57"/><polygon class="cls-2" points="139.46 0.01 120.01 42.27 119.74 42.85 118.34 45.9 109.66 45.9 115.4 33.42 119.74 24 130.78 0.01 139.46 0.01"/><rect class="cls-1" x="143.69" y="0.01" width="38.16" height="7.56"/></g></g></svg>